<svg width="40" height="40" viewBox="0 0 40 40" fill="none" xmlns="http://www.w3.org/2000/svg">
<path d="M20 0.5C30.7696 0.5 39.5 9.23045 39.5 20C39.5 30.7696 30.7696 39.5 20 39.5C9.23045 39.5 0.5 30.7696 0.5 20C0.5 9.23045 9.23045 0.5 20 0.5Z" stroke="#D5D7DA"/>
<path d="M15.3989 28.1056V17.3005H11.8106V28.1056H15.3993H15.3989ZM13.6055 15.8255C14.8566 15.8255 15.6354 14.9958 15.6354 13.9589C15.612 12.8983 14.8566 12.0918 13.6293 12.0918C12.4012 12.0918 11.5991 12.8983 11.5991 13.9588C11.5991 14.9957 12.3777 15.8254 13.582 15.8254H13.6052L13.6055 15.8255ZM17.3851 28.1056H20.9731V22.0722C20.9731 21.7497 20.9965 21.4263 21.0913 21.196C21.3505 20.5505 21.9409 19.8823 22.9324 19.8823C24.2305 19.8823 24.7501 20.8731 24.7501 22.3258V28.1056H28.338V21.9103C28.338 18.5916 26.568 17.0472 24.2073 17.0472C22.2718 17.0472 21.4217 18.1299 20.9495 18.8674H20.9733V17.3009H17.3853C17.4321 18.3145 17.385 28.106 17.385 28.106L17.3851 28.1056Z" fill="#0A0D12"/>
</svg>
