<?xml version="1.0" encoding="utf-8"?>
<!-- Generator: Adobe Illustrator 24.1.1, SVG Export Plug-In . SVG Version: 6.00 Build 0)  -->
<svg version="1.1" id="Layer_1" xmlns="http://www.w3.org/2000/svg" xmlns:xlink="http://www.w3.org/1999/xlink" x="0px" y="0px"
	 viewBox="0 0 512 512" style="enable-background:new 0 0 512 512;" xml:space="preserve">
<style type="text/css">
	.st0{fill-rule:evenodd;clip-rule:evenodd;}
</style>
<g>
	<path d="M345.3,413.2l-51.6-51.7c-58.2,20.8-122.3-9.5-143.2-67.8c-8.7-24.4-8.7-51,0-75.4l-65.9-65.9C30,200.9,0,256,0,256
		s96,176,256,176C286.7,431.9,317.1,425.5,345.3,413.2z M166.7,98.8C194.9,86.5,225.3,80.1,256,80c160,0,256,176,256,176
		s-30,55.1-84.5,103.6l-66-66c20.8-58.2-9.5-122.3-67.8-143.2c-24.4-8.7-51-8.7-75.4,0L166.7,98.8L166.7,98.8z"/>
	<path d="M176.8,244.7c-6.3,43.7,24.1,84.3,67.9,90.5c7.5,1.1,15.1,1.1,22.7,0L176.8,244.7L176.8,244.7z M335.2,267.3l-90.5-90.6
		c43.7-6.3,84.3,24.1,90.5,67.9C336.3,252.1,336.3,259.8,335.2,267.3L335.2,267.3z"/>
	
		<rect x="240" y="-15.5" transform="matrix(0.7071 -0.7071 0.7071 0.7071 -106.0387 256)" class="st0" width="32.1" height="543.1"/>
</g>
</svg>
